<svg width="640" height="640" viewBox="0 0 640 640" fill="none" xmlns="http://www.w3.org/2000/svg">
    <rect width="640" height="640" fill="#F7F7F8"/>
    <path d="M388.752 271.875V271.881C388.751 277.352 386.577 282.598 382.708 286.466C378.84 290.334 373.593 292.507 368.122 292.506C362.652 292.506 357.405 290.332 353.537 286.464C349.669 282.595 347.496 277.349 347.496 271.878C347.496 266.408 349.669 261.161 353.537 257.293C357.405 253.424 362.652 251.251 368.122 251.25C373.593 251.25 378.84 253.423 382.708 257.29C386.577 261.158 388.751 266.405 388.752 271.875V271.875ZM498.75 196.25V443.75C498.742 451.041 495.842 458.031 490.686 463.186C485.531 468.342 478.541 471.242 471.25 471.25H168.75C161.459 471.242 154.469 468.342 149.314 463.186C144.158 458.031 141.258 451.041 141.25 443.75V196.25C141.258 188.959 144.158 181.969 149.314 176.814C154.469 171.658 161.459 168.758 168.75 168.75H471.25C478.541 168.758 485.531 171.658 490.686 176.814C495.842 181.969 498.742 188.959 498.75 196.25V196.25ZM471.264 383.067L471.25 196.25H168.75V355.554L231.805 292.5C236.966 287.351 243.96 284.459 251.251 284.459C258.542 284.459 265.535 287.351 270.697 292.5L347.502 369.306L383.055 333.75C388.216 328.601 395.21 325.709 402.501 325.709C409.792 325.709 416.785 328.601 421.947 333.75L471.264 383.067Z"
          fill="#BABABA"/>
</svg>
