<svg width="30" height="40" viewBox="0 0 30 40" fill="none" xmlns="http://www.w3.org/2000/svg">
<path d="M0.5 36V4C0.5 2.067 2.067 0.5 4 0.5H17.9C18.7987 0.5 19.663 0.845712 20.3138 1.46552L28.4138 9.1798C29.1074 9.8404 29.5 10.7564 29.5 11.7143V36C29.5 37.933 27.933 39.5 26 39.5H4C2.067 39.5 0.5 37.933 0.5 36Z" fill="white" stroke="#E5E9EB"/>
<path fill-rule="evenodd" clip-rule="evenodd" d="M17.4528 12L9.6 12C8.71634 12 8 12.7163 8 13.6V27.28C8 28.1637 8.71635 28.88 9.6 28.88H20.0728C20.9565 28.88 21.6728 28.1637 21.6728 27.28V16.22L17.4528 12Z" fill="#CCCCCC"/>
<path d="M13 19.11C13 18.688 13.0844 18.3504 13.1688 18.1394C13.2532 17.9284 13.422 17.7174 13.633 17.5486C13.844 17.3376 14.055 17.211 14.3504 17.1266C14.6036 17.0422 14.8568 17 15.1522 17C15.743 17 16.2072 17.1688 16.6292 17.5064C17.009 17.844 17.22 18.266 17.22 18.8146C17.22 19.0678 17.1356 19.2788 17.0512 19.4898C16.9668 19.7008 16.7558 19.954 16.4182 20.2494C16.0806 20.5448 15.954 20.7558 15.8274 20.8824C15.7008 21.009 15.6586 21.1778 15.5742 21.3466C15.4898 21.5154 15.532 21.642 15.532 22.064H14.688C14.688 21.642 14.7302 21.431 14.7724 21.22C14.8146 21.009 14.899 20.8402 15.0256 20.6714C15.1522 20.5026 15.2788 20.2916 15.5742 19.9962C15.8696 19.7008 16.0806 19.4898 16.165 19.3632C16.2494 19.2366 16.3338 19.0256 16.3338 18.7302C16.3338 18.4348 16.2072 18.2238 15.9962 18.0128C15.7852 17.8018 15.4898 17.6752 15.11 17.6752C14.266 17.6752 13.844 18.266 13.844 19.11H13V19.11ZM15.532 23.752H14.688V22.908H15.532V23.752Z" fill="white"/>
</svg>
