<svg width="30" height="40" viewBox="0 0 30 40" fill="none" xmlns="http://www.w3.org/2000/svg">
<path d="M0.5 36V4C0.5 2.067 2.067 0.5 4 0.5H17.9C18.7987 0.5 19.663 0.845712 20.3138 1.46552L28.4138 9.1798C29.1074 9.8404 29.5 10.7564 29.5 11.7143V36C29.5 37.933 27.933 39.5 26 39.5H4C2.067 39.5 0.5 37.933 0.5 36Z" fill="white" stroke="#E5E9EB"/>
<path fill-rule="evenodd" clip-rule="evenodd" d="M17.4528 12L9.6 12C8.71634 12 8 12.7163 8 13.6V27.28C8 28.1637 8.71635 28.88 9.6 28.88H20.0728C20.9565 28.88 21.6728 28.1637 21.6728 27.28V16.22L17.4528 12Z" fill="#F16C00"/>
<path d="M18.3937 20.4233C18.3687 20.5478 18.3194 20.6662 18.2487 20.7718C18.1911 20.8593 18.1326 20.918 18.0741 20.8882C18.0165 20.8882 17.9867 20.51 17.9588 20.4513C17.9141 20.3497 17.8847 20.2419 17.8715 20.1317C17.8426 19.899 17.7554 19.6941 17.6095 19.6073C17.4645 19.491 17.2619 19.4034 17 19.3447C16.7156 19.2894 16.4474 19.1703 16.2157 18.9963C15.9835 18.8212 15.7224 18.6759 15.5774 18.5008C15.4315 18.3555 15.3154 18.3256 15.2578 18.3555C15.1704 18.3844 15.1416 18.472 15.1416 18.5594V23.9742C15.1416 24.1204 15.1128 24.2946 15.0542 24.4697C14.9966 24.6449 14.9669 24.8189 14.8219 24.9932C14.677 25.1684 14.4736 25.2847 14.2125 25.4012C13.9504 25.5177 13.6317 25.5763 13.2824 25.6051C12.9222 25.6279 12.5623 25.5576 12.2371 25.4012C11.9573 25.2726 11.7094 25.0836 11.5113 24.8478C11.3367 24.615 11.2494 24.3822 11.2494 24.0906C11.2494 23.8289 11.3665 23.5671 11.6275 23.3341C11.8598 23.1013 12.1209 22.9263 12.4117 22.8387C12.7017 22.7511 12.9637 22.6934 13.2248 22.6934C13.4867 22.6934 13.8928 22.6934 14.0962 22.752C14.2989 22.8098 14.4448 22.8396 14.5608 22.8685V17.7148C14.5608 17.5397 14.6185 17.3951 14.7059 17.2788C14.7931 17.1623 14.9381 17.1036 15.083 17.0748C15.229 17.0459 15.3451 17.0748 15.4324 17.1624C15.5197 17.2201 15.4324 17.3374 15.5477 17.4529C15.635 17.5694 15.7512 17.7156 15.897 17.8898C16.0419 18.0649 16.2157 18.2102 16.448 18.3556C16.6515 18.5009 16.8261 18.5884 16.9711 18.676C17.1161 18.7338 17.2619 18.7925 17.3781 18.8511C17.4941 18.9088 17.6392 18.9666 17.7554 19.0542C17.8714 19.1418 18.0173 19.2581 18.1614 19.4333C18.3072 19.6084 18.3937 19.7528 18.4234 19.9279C18.4234 20.103 18.4234 20.2772 18.3937 20.4225V20.4234V20.4233Z" fill="white"/>
</svg>
