<svg width="84" height="84" viewBox="0 0 84 84" fill="none" xmlns="http://www.w3.org/2000/svg">
<rect width="84" height="84" fill="#FFDF8B"/>
<rect x="28.4614" y="18.3717" width="39" height="47" rx="3.5" transform="rotate(10 28.4614 18.3717)" fill="#262626"/>
<rect x="28.4614" y="18.3717" width="39" height="47" rx="3.5" transform="rotate(10 28.4614 18.3717)" stroke="#262626" stroke-width="3"/>
<rect x="25.2167" y="13.7379" width="41" height="49" rx="3.5" transform="rotate(10 25.2167 13.7379)" fill="white"/>
<rect x="32.1116" y="23.5847" width="24" height="2.4" rx="1.2" transform="rotate(10 32.1116 23.5847)" fill="#262626"/>
<rect x="31.087" y="29.395" width="24" height="2.4" rx="1.2" transform="rotate(10 31.087 29.395)" fill="#262626"/>
<rect x="30.0625" y="35.2056" width="24" height="2.4" rx="1.2" transform="rotate(10 30.0625 35.2056)" fill="#262626"/>
<rect x="29.038" y="41.0159" width="24" height="2.4" rx="1.2" transform="rotate(10 29.038 41.0159)" fill="#262626"/>
<rect x="28.0134" y="46.8262" width="24" height="2.4" rx="1.2" transform="rotate(10 28.0134 46.8262)" fill="#262626"/>
<rect x="26.9889" y="52.6365" width="10" height="2.4" rx="1.2" transform="rotate(10 26.9889 52.6365)" fill="#262626"/>
<rect x="25.2167" y="13.7379" width="41" height="49" rx="3.5" transform="rotate(10 25.2167 13.7379)" stroke="#262626" stroke-width="3"/>
<path d="M42.8041 57.9638L38.3725 57.1823L39.1539 52.7507L54.7931 41.8001L58.4433 47.0131L42.8041 57.9638Z" fill="white" stroke="#262626" stroke-width="1.6" stroke-linecap="round" stroke-linejoin="round"/>
<path d="M50.8833 44.5378L54.5335 49.7509" stroke="#262626" stroke-width="1.6" stroke-linecap="round" stroke-linejoin="round"/>
</svg>
