<svg width="84" height="84" viewBox="0 0 84 84" fill="none" xmlns="http://www.w3.org/2000/svg">
<rect width="84" height="84" fill="#FFDF8B"/>
<path fill-rule="evenodd" clip-rule="evenodd" d="M32.2632 16.2832C27.3035 16.2832 23.283 20.3038 23.283 25.2634V48.3694C23.283 53.329 27.3035 57.3496 32.2632 57.3496H43.4025L51.8017 67.7174V57.3466C56.6527 57.222 60.5469 53.2504 60.5469 48.3694V25.2634C60.5469 20.3038 56.5263 16.2832 51.5667 16.2832H32.2632Z" fill="white"/>
<path fill-rule="evenodd" clip-rule="evenodd" d="M43.4025 57.3493H32.2631C27.3035 57.3493 23.2829 53.3287 23.2829 48.3691V25.2631C23.2829 20.3035 27.3035 16.2829 32.2631 16.2829H51.5666C56.5263 16.2829 60.5468 20.3035 60.5468 25.2631V48.3691C60.5468 53.2501 56.6527 57.2216 51.8016 57.3463V67.717L43.4025 57.3493ZM53.0845 58.5207C58.0332 57.7869 61.8297 53.5215 61.8297 48.3691V25.2631C61.8297 19.595 57.2348 15 51.5666 15H32.2631C26.595 15 22 19.595 22 25.2631V48.3691C22 54.0372 26.595 58.6322 32.2631 58.6322H42.7907L50.8048 68.5246C51.1469 68.9468 51.7178 69.1077 52.23 68.9263C52.7422 68.7449 53.0845 68.2604 53.0845 67.717V58.5207Z" fill="#262626" stroke="#262626" stroke-linecap="round" stroke-linejoin="round"/>
<path fill-rule="evenodd" clip-rule="evenodd" d="M27.1 27.3887C27.1 23.4959 30.2043 20.3401 34.0337 20.3401H49.7262C53.5556 20.3401 56.66 23.4959 56.66 27.3887V46.0515C56.66 49.9443 53.5556 53.1001 49.7262 53.1001H49.5381C49.2436 53.1001 49.0048 52.8573 49.0048 52.5579C49.0048 52.2584 49.2436 52.0157 49.5381 52.0157H49.7262C52.9665 52.0157 55.5932 49.3454 55.5932 46.0515V27.3887C55.5932 24.0948 52.9665 21.4245 49.7262 21.4245H34.0337C30.7935 21.4245 28.1667 24.0948 28.1667 27.3887V46.0515C28.1667 49.3454 30.7935 52.0157 34.0337 52.0157H43.5871C43.8817 52.0157 44.1205 52.2584 44.1205 52.5579C44.1205 52.8573 43.8817 53.1001 43.5871 53.1001H34.0337C30.2043 53.1001 27.1 49.9443 27.1 46.0515V27.3887Z" fill="#262626" stroke="#262626" stroke-width="1.5" stroke-linecap="round" stroke-linejoin="round"/>
<path d="M42.94 46.7599C44.1093 46.7599 45.0572 45.812 45.0572 44.6428C45.0572 43.4735 44.1093 42.5256 42.94 42.5256C41.7708 42.5256 40.8229 43.4735 40.8229 44.6428C40.8229 45.812 41.7708 46.7599 42.94 46.7599Z" fill="#262626"/>
<path d="M42.94 38.2914V36.88C43.917 36.88 44.8721 36.5903 45.6845 36.0475C46.4969 35.5046 47.1301 34.7331 47.504 33.8305C47.8779 32.9278 47.9757 31.9345 47.7851 30.9763C47.5945 30.018 47.124 29.1378 46.4331 28.4469C45.7422 27.756 44.862 27.2855 43.9037 27.0949C42.9455 26.9043 41.9522 27.0021 41.0495 27.376C40.1469 27.7499 39.3754 28.3831 38.8325 29.1955C38.2897 30.0079 38 30.963 38 31.94" stroke="#262626" stroke-width="3" stroke-linecap="round" stroke-linejoin="round"/>
</svg>
