<svg width="28" height="28" viewBox="0 0 28 28" fill="none" xmlns="http://www.w3.org/2000/svg">
<path d="M23.7337 10.2929L14.6428 0.292879C14.4723 0.105351 14.2411 0 14 0C13.7589 0 13.5277 0.105351 13.3572 0.292879L4.26628 10.2929C4.13914 10.4327 4.05255 10.6109 4.01747 10.8049C3.98239 10.9989 4.00039 11.1999 4.0692 11.3827C4.138 11.5654 4.25453 11.7216 4.40403 11.8315C4.55353 11.9413 4.72929 12 4.9091 12H23.0909C23.2707 12 23.4465 11.9413 23.596 11.8315C23.7455 11.7216 23.862 11.5654 23.9308 11.3827C23.9996 11.1999 24.0176 10.9989 23.9825 10.8049C23.9474 10.6109 23.8609 10.4327 23.7337 10.2929V10.2929Z" fill="#2563EB"/>
<path d="M23.9308 16.6173C23.862 16.4346 23.7455 16.2784 23.596 16.1685C23.4465 16.0586 23.2707 16 23.0909 16H4.90909C4.72929 16 4.55353 16.0586 4.40402 16.1685C4.25452 16.2784 4.138 16.4346 4.0692 16.6173C4.00039 16.8 3.98239 17.0011 4.01747 17.1951C4.05255 17.3891 4.13914 17.5672 4.26628 17.7071L13.3572 27.7071C13.4416 27.7999 13.5418 27.8736 13.6521 27.9238C13.7624 27.9741 13.8806 28 14 28C14.1194 28 14.2376 27.9741 14.3479 27.9238C14.4582 27.8736 14.5584 27.7999 14.6428 27.7071L23.7337 17.7071C23.8609 17.5672 23.9474 17.3891 23.9825 17.1951C24.0176 17.0011 23.9996 16.8 23.9308 16.6173Z" fill="#D1D1D1"/>
</svg>
