<svg width="28" height="28" viewBox="0 0 28 28" fill="none" xmlns="http://www.w3.org/2000/svg">
<path d="M4.26628 17.7071L13.3572 27.7071C13.5277 27.8946 13.7589 28 14 28C14.2411 28 14.4723 27.8946 14.6428 27.7071L23.7337 17.7071C23.8609 17.5673 23.9474 17.3891 23.9825 17.1951C24.0176 17.0011 23.9996 16.8001 23.9308 16.6173C23.862 16.4346 23.7455 16.2784 23.596 16.1685C23.4465 16.0587 23.2707 16 23.0909 16H4.9091C4.72929 16 4.55353 16.0587 4.40403 16.1685C4.25452 16.2784 4.138 16.4346 4.0692 16.6173C4.00039 16.8001 3.98239 17.0011 4.01747 17.1951C4.05255 17.3891 4.13914 17.5673 4.26628 17.7071V17.7071Z" fill="#2563EB"/>
<path d="M4.0692 11.3827C4.13801 11.5654 4.25453 11.7216 4.40403 11.8315C4.55353 11.9414 4.7293 12 4.9091 12L23.0909 12C23.2707 12 23.4465 11.9414 23.596 11.8315C23.7455 11.7216 23.862 11.5654 23.9308 11.3827C23.9996 11.2 24.0176 10.9989 23.9825 10.8049C23.9474 10.6109 23.8609 10.4328 23.7337 10.2929L14.6428 0.292936C14.5584 0.200074 14.4582 0.12641 14.3479 0.0761528C14.2376 0.0258955 14.1194 2.86102e-05 14 2.86102e-05C13.8806 2.86102e-05 13.7624 0.0258955 13.6521 0.0761528C13.5418 0.12641 13.4416 0.200074 13.3572 0.292936L4.26629 10.2929C4.13914 10.4328 4.05255 10.6109 4.01747 10.8049C3.98239 10.9989 4.00039 11.2 4.0692 11.3827Z" fill="#D1D1D1"/>
</svg>
